<svg xmlns="http://www.w3.org/2000/svg" version="1.1" xmlns:xlink="http://www.w3.org/1999/xlink" xmlns:svgjs="http://svgjs.dev/svgjs" width="1000" height="1000" viewBox="0 0 1000 1000"><rect width="1000" height="1000" fill="#000000"></rect><g transform="matrix(0.7,0,0,0.7,149.57575758216353,416.9304885441262)"><svg viewBox="0 0 396 94" data-background-color="#fce44d" preserveAspectRatio="xMidYMid meet" height="237" width="1000" xmlns="http://www.w3.org/2000/svg" xmlns:xlink="http://www.w3.org/1999/xlink"><g id="tight-bounds" transform="matrix(1,0,0,1,0.24000000362403284,0.06771595450354084)"><svg viewBox="0 0 395.5199999999999 93.86456809099292" height="93.86456809099292" width="395.5199999999999"><g><svg viewBox="0 0 395.5199999999999 93.86456809099292" height="93.86456809099292" width="395.5199999999999"><g><svg viewBox="0 0 395.5199999999999 93.86456809099292" height="93.86456809099292" width="395.5199999999999"><g><svg viewBox="0 0 395.5199999999999 93.86456809099292" height="93.86456809099292" width="395.5199999999999"><g><svg viewBox="0 0 395.5199999999999 93.86456809099292" height="93.86456809099292" width="395.5199999999999"><g transform="matrix(1,0,0,1,0,0)"><svg width="395.5199999999999" viewBox="0.20000000298023224 -37.400001525878906 162.6300048828125 38.60000228881836" height="93.86456809099292" data-palette-color="#374151"><g class="undefined-text-0" data-fill-palette-color="primary" id="text-0"><path d="M25.45-25.55Q25.45-22.95 24.7-20.03 23.95-17.1 22.6-14.23 21.25-11.35 19.28-8.72 17.3-6.1 14.8-4.13 12.3-2.15 9.33-0.95 6.35 0.25 3 0.25L3 0.25Q2.3 0.25 1.6 0.18 0.9 0.1 0.2 0L0.2 0Q1.55-6.9 2.85-13.45L2.85-13.45Q3.35-16.2 3.9-19.18 4.45-22.15 4.95-25.05 5.45-27.95 5.93-30.6 6.4-33.25 6.7-35.4L6.7-35.4Q8.85-35.8 11.05-36.15 13.25-36.5 15.55-36.5L15.55-36.5Q18.25-36.5 20.13-35.65 22-34.8 23.18-33.3 24.35-31.8 24.9-29.8 25.45-27.8 25.45-25.55L25.45-25.55ZM13.65-29.45Q13.1-26.5 12.5-23.8 11.9-21.1 11.3-18.35 10.7-15.6 10.1-12.6 9.5-9.6 8.95-6.05L8.95-6.05Q10.15-6.85 11.28-8.22 12.4-9.6 13.4-11.4 14.4-13.2 15.23-15.2 16.05-17.2 16.65-19.1 17.25-21 17.57-22.65 17.9-24.3 17.9-25.5L17.9-25.5Q17.9-27.35 16.88-28.4 15.85-29.45 13.65-29.45L13.65-29.45ZM29.95-1Q29.5-1 28.2-0.88 26.9-0.75 25.5-0.58 24.1-0.4 22.97-0.25 21.85-0.1 21.75-0.05L21.75-0.05Q22.35-2.2 22.95-4.83 23.55-7.45 24.17-10.33 24.8-13.2 25.37-16.15 25.95-19.1 26.5-21.85L26.5-21.85Q27.75-28.25 28.95-35L28.95-35 36.75-36.25Q35.45-29.55 34.15-23.1L34.15-23.1Q33.6-20.35 33.02-17.4 32.45-14.45 31.92-11.55 31.4-8.65 30.87-5.93 30.35-3.2 29.95-1L29.95-1ZM59.25-19.05Q58.9-13.95 57.25-10.18 55.59-6.4 53.27-3.85 50.95-1.3 48.27-0.05 45.59 1.2 43.2 1.2L43.2 1.2Q41.34 1.2 39.67 0.4 38-0.4 36.77-2.02 35.55-3.65 34.84-6.1 34.15-8.55 34.15-11.85L34.15-11.85Q34.15-18.3 36-23.1 37.84-27.9 40.67-31.1 43.5-34.3 46.72-35.85 49.95-37.4 52.75-37.4L52.75-37.4Q54.75-37.4 56.22-36.7 57.7-36 58.65-34.83 59.59-33.65 60.02-32.08 60.45-30.5 60.45-28.75L60.45-28.75 53.59-27.45Q53.15-29.45 52.4-30.3 51.65-31.15 50.7-31.15L50.7-31.15Q49.45-31.15 47.95-29.38 46.45-27.6 45.15-24.8 43.84-22 42.95-18.65 42.05-15.3 41.95-12.05L41.95-12.05Q41.95-8.95 42.87-7.63 43.8-6.3 45.25-6.3L45.25-6.3Q46.25-6.3 47.32-6.8 48.4-7.3 49.25-8.22 50.09-9.15 50.67-10.38 51.25-11.6 51.3-13.05L51.3-13.05 45.95-12.25 46.9-17.2Q49.25-17.5 51.5-17.8L51.5-17.8Q53.4-18.05 55.52-18.4 57.65-18.75 59.25-19.05L59.25-19.05ZM84.19-19.05Q83.84-13.95 82.19-10.18 80.54-6.4 78.22-3.85 75.89-1.3 73.22-0.05 70.54 1.2 68.14 1.2L68.14 1.2Q66.29 1.2 64.62 0.4 62.94-0.4 61.72-2.02 60.49-3.65 59.79-6.1 59.09-8.55 59.09-11.85L59.09-11.85Q59.09-18.3 60.94-23.1 62.79-27.9 65.62-31.1 68.44-34.3 71.67-35.85 74.89-37.4 77.69-37.4L77.69-37.4Q79.69-37.4 81.17-36.7 82.64-36 83.59-34.83 84.54-33.65 84.97-32.08 85.39-30.5 85.39-28.75L85.39-28.75 78.54-27.45Q78.09-29.45 77.34-30.3 76.59-31.15 75.64-31.15L75.64-31.15Q74.39-31.15 72.89-29.38 71.39-27.6 70.09-24.8 68.79-22 67.89-18.65 66.99-15.3 66.89-12.05L66.89-12.05Q66.89-8.95 67.82-7.63 68.74-6.3 70.19-6.3L70.19-6.3Q71.19-6.3 72.27-6.8 73.34-7.3 74.19-8.22 75.04-9.15 75.62-10.38 76.19-11.6 76.24-13.05L76.24-13.05 70.89-12.25 71.84-17.2Q74.19-17.5 76.44-17.8L76.44-17.8Q78.34-18.05 80.47-18.4 82.59-18.75 84.19-19.05L84.19-19.05ZM100.34-1Q99.09-0.8 97.59-0.55 96.09-0.3 94.89-0.1L94.89-0.1Q95.09-1.75 95.29-3.35L95.29-3.35Q95.44-4.75 95.57-6.15 95.69-7.55 95.79-8.55L95.79-8.55 91.44-8.55 89.44-1.35Q88.34-1.2 86.84-1.03 85.34-0.85 84.04-0.7L84.04-0.7Q82.44-0.5 80.89-0.3L80.89-0.3Q82.89-6.95 84.84-13.4L84.84-13.4Q85.64-16.1 86.52-19.05 87.39-22 88.27-24.93 89.14-27.85 89.94-30.55 90.74-33.25 91.34-35.5L91.34-35.5Q94.74-35.75 98.27-36.1 101.79-36.45 105.14-37.05L105.14-37.05Q104.99-35.45 104.82-33.08 104.64-30.7 104.49-27.9 104.34-25.1 104.19-22.05 104.04-19 103.89-16.05L103.89-16.05Q103.64-9.15 103.34-1.4L103.34-1.4Q101.84-1.15 100.34-1L100.34-1ZM95.74-26.1L92.64-13.55Q92.84-13.55 93.37-13.58 93.89-13.6 94.47-13.63 95.04-13.65 95.54-13.68 96.04-13.7 96.24-13.75L96.24-13.75Q96.24-14.05 96.32-14.78 96.39-15.5 96.47-16.43 96.54-17.35 96.64-18.45 96.74-19.55 96.84-20.6L96.84-20.6Q97.04-23.15 97.34-26.1L97.34-26.1 97.64-30.45 96.89-30.4 95.74-26.1ZM126.19-12.55Q126.19-10.5 125.34-8.75 124.49-7 123.04-5.58 121.59-4.15 119.66-3.08 117.74-2 115.61-1.28 113.49-0.55 111.26-0.18 109.04 0.2 106.99 0.2L106.99 0.2Q105.14 0.2 103.54-0.1L103.54-0.1Q105.94-8.85 107.36-17.73 108.79-26.6 110.09-35.6L110.09-35.6Q112.69-36.15 115.49-36.58 118.29-37 121.29-37L121.29-37Q122.54-37 123.94-36.7 125.34-36.4 126.49-35.6 127.64-34.8 128.41-33.5 129.19-32.2 129.19-30.2L129.19-30.2Q129.19-28.3 128.56-26.65 127.94-25 126.96-23.65 125.99-22.3 124.74-21.33 123.49-20.35 122.19-19.85L122.19-19.85Q122.84-19.5 123.54-18.85 124.24-18.2 124.84-17.32 125.44-16.45 125.81-15.25 126.19-14.05 126.19-12.55L126.19-12.55ZM114.74-17.75Q114.54-16.55 114.36-15.63 114.19-14.7 114.04-13.85 113.89-13 113.71-12.08 113.54-11.15 113.34-9.9L113.34-9.9Q114.29-10 115.49-10.25 116.69-10.5 117.79-11.03 118.89-11.55 119.64-12.43 120.39-13.3 120.39-14.55L120.39-14.55Q120.39-15.45 119.91-16.05 119.44-16.65 118.71-17.05 117.99-17.45 117.14-17.63 116.29-17.8 115.54-17.8L115.54-17.8Q115.29-17.8 115.11-17.8 114.94-17.8 114.74-17.75L114.74-17.75ZM116.99-29.85Q116.89-29.3 116.76-28.55 116.64-27.8 116.49-26.98 116.34-26.15 116.16-25.35 115.99-24.55 115.89-23.95L115.89-23.95Q116.99-24.15 118.09-24.5 119.19-24.85 120.06-25.28 120.94-25.7 121.46-26.2 121.99-26.7 121.99-27.3L121.99-27.3Q121.99-28.05 121.54-28.53 121.09-29 120.36-29.3 119.64-29.6 118.86-29.73 118.09-29.85 117.49-29.85L117.49-29.85 116.99-29.85ZM138.79-1.6Q137.24-1.6 135.51-1.5 133.79-1.4 132.04-1.2 130.29-1 128.61-0.68 126.94-0.35 125.59 0.1L125.59 0.1Q125.89-2.15 126.29-4.9 126.69-7.65 127.21-10.6 127.74-13.55 128.26-16.55 128.79-19.55 129.34-22.3L129.34-22.3Q130.59-28.85 131.99-35.65L131.99-35.65 140.74-36.8Q139.39-31 138.14-25.5L138.14-25.5Q137.59-23.15 137.04-20.63 136.49-18.1 135.99-15.7 135.49-13.3 135.09-11.05 134.69-8.8 134.44-7.05L134.44-7.05Q135.69-7.15 137.11-7.18 138.54-7.2 139.64-7.2L139.64-7.2Q139.69-6.25 139.79-5.33 139.89-4.4 140.01-3.65 140.14-2.9 140.21-2.33 140.29-1.75 140.34-1.55L140.34-1.55Q139.94-1.55 139.56-1.58 139.19-1.6 138.79-1.6L138.79-1.6ZM156.63-2.45L140.48 0.05 147.03-35.5 162.83-36.85Q162.48-35.75 162.23-34.6L162.23-34.6Q161.98-33.65 161.76-32.63 161.53-31.6 161.38-30.8L161.38-30.8Q160.88-30.75 159.96-30.73 159.03-30.7 157.98-30.68 156.93-30.65 155.86-30.65 154.78-30.65 153.98-30.65L153.98-30.65 152.23-21.7Q153.78-21.8 155.13-21.85L155.13-21.85Q156.23-21.9 157.38-21.9 158.53-21.9 159.08-21.95L159.08-21.95Q158.88-20.55 158.71-19.2 158.53-17.85 158.28-16.45L158.28-16.45Q157.78-16.4 156.66-16.38 155.53-16.35 154.38-16.3L154.38-16.3Q153.08-16.25 151.53-16.2L151.53-16.2 149.83-7 157.13-8.15 156.63-2.45Z" fill="#ffffff" data-fill-palette-color="primary"></path></g></svg></g></svg></g></svg></g></svg></g></svg></g><defs></defs></svg><rect width="395.5199999999999" height="93.86456809099292" fill="none" stroke="none" visibility="hidden"></rect></g></svg></g></svg>